<svg width="15" height="15" viewBox="0 0 15 15" fill="none" xmlns="http://www.w3.org/2000/svg">
<path d="M11.5395 15H3.46046C1.54884 15 0 13.4425 0 11.5288V6.35336C0 5.40347 0.586047 4.20915 1.33953 3.62246L5.1 0.68903C6.23023 -0.190996 8.03721 -0.232902 9.2093 0.591249L13.5209 3.61548C14.3512 4.19518 15 5.43839 15 6.45115V11.5358C15 13.4425 13.4512 15 11.5395 15ZM5.74186 1.51318L1.9814 4.44661C1.48605 4.83774 1.04651 5.72475 1.04651 6.35336V11.5288C1.04651 12.8628 2.12791 13.9523 3.46046 13.9523H11.5395C12.8721 13.9523 13.9535 12.8698 13.9535 11.5358V6.45115C13.9535 5.78063 13.4721 4.85171 12.9209 4.47455L8.6093 1.45033C7.81395 0.891577 6.50233 0.919514 5.74186 1.51318Z" fill="white"/>
<path d="M7.49982 12.2055C7.21377 12.2055 6.97656 11.968 6.97656 11.6816V9.58633C6.97656 9.29997 7.21377 9.0625 7.49982 9.0625C7.78586 9.0625 8.02307 9.29997 8.02307 9.58633V11.6816C8.02307 11.968 7.78586 12.2055 7.49982 12.2055Z" fill="white"/>
</svg>
